<mxfile host="app.diagrams.net" agent="Mozilla/5.0 (X11; Linux x86_64; rv:138.0) Gecko/20100101 Firefox/138.0" version="27.0.9">
  <diagram name="Page-1" id="6_ufCiLqVWRw7XieI682">
    <mxGraphModel grid="1" page="1" gridSize="10" guides="1" tooltips="1" connect="1" arrows="1" fold="1" pageScale="1" pageWidth="1654" pageHeight="1169" math="0" shadow="0">
      <root>
        <mxCell id="0" />
        <mxCell id="1" parent="0" />
        <mxCell id="OyF0owdOx1uM8PFf-tYp-7" value="" style="group" connectable="0" vertex="1" parent="1">
          <mxGeometry x="550" y="350" width="110" height="120" as="geometry" />
        </mxCell>
        <mxCell id="OyF0owdOx1uM8PFf-tYp-4" value="crawler" style="image;sketch=0;aspect=fixed;html=1;points=[];align=center;fontSize=12;image=img/lib/mscae/Container_Instances.svg;" vertex="1" parent="OyF0owdOx1uM8PFf-tYp-7">
          <mxGeometry x="30" width="50" height="50" as="geometry" />
        </mxCell>
        <mxCell id="OyF0owdOx1uM8PFf-tYp-5" value="" style="verticalLabelPosition=bottom;shadow=0;dashed=0;align=center;html=1;verticalAlign=top;strokeWidth=1;shape=mxgraph.mockup.markup.curlyBrace;whiteSpace=wrap;strokeColor=#999999;rotation=-180;" vertex="1" parent="OyF0owdOx1uM8PFf-tYp-7">
          <mxGeometry x="5" y="70" width="100" height="20" as="geometry" />
        </mxCell>
        <mxCell id="OyF0owdOx1uM8PFf-tYp-6" value="replicat de N ori" style="text;html=1;align=center;verticalAlign=middle;resizable=0;points=[];autosize=1;strokeColor=none;fillColor=none;" vertex="1" parent="OyF0owdOx1uM8PFf-tYp-7">
          <mxGeometry y="90" width="110" height="30" as="geometry" />
        </mxCell>
        <mxCell id="OyF0owdOx1uM8PFf-tYp-8" value="serviciu de indexare" style="image;sketch=0;aspect=fixed;html=1;points=[];align=center;fontSize=12;image=img/lib/mscae/Container_Instances.svg;" vertex="1" parent="1">
          <mxGeometry x="828" y="350" width="50" height="50" as="geometry" />
        </mxCell>
        <mxCell id="OyF0owdOx1uM8PFf-tYp-9" value="&lt;div&gt;front-end web&lt;/div&gt;&lt;div&gt;pentru search&lt;/div&gt;" style="image;sketch=0;aspect=fixed;html=1;points=[];align=center;fontSize=12;image=img/lib/mscae/CustomDomain.svg;" vertex="1" parent="1">
          <mxGeometry x="1040" y="350" width="50" height="42" as="geometry" />
        </mxCell>
        <mxCell id="OyF0owdOx1uM8PFf-tYp-11" value="" style="endArrow=classic;html=1;rounded=0;exitX=0.487;exitY=0.017;exitDx=0;exitDy=0;exitPerimeter=0;" edge="1" parent="1" source="OyF0owdOx1uM8PFf-tYp-4" target="OyF0owdOx1uM8PFf-tYp-3">
          <mxGeometry width="50" height="50" relative="1" as="geometry">
            <mxPoint x="680" y="320" as="sourcePoint" />
            <mxPoint x="730" y="270" as="targetPoint" />
          </mxGeometry>
        </mxCell>
        <mxCell id="OyF0owdOx1uM8PFf-tYp-12" value="" style="endArrow=classic;html=1;rounded=0;exitX=0.522;exitY=-0.038;exitDx=0;exitDy=0;exitPerimeter=0;entryX=0.515;entryY=0.973;entryDx=0;entryDy=0;entryPerimeter=0;" edge="1" parent="1" source="OyF0owdOx1uM8PFf-tYp-8" target="OyF0owdOx1uM8PFf-tYp-3">
          <mxGeometry width="50" height="50" relative="1" as="geometry">
            <mxPoint x="860" y="330" as="sourcePoint" />
            <mxPoint x="870" y="210" as="targetPoint" />
          </mxGeometry>
        </mxCell>
        <mxCell id="OyF0owdOx1uM8PFf-tYp-3" value="&lt;div&gt;BazÄƒ de date Mongo&lt;/div&gt;&lt;div&gt;pentru robots.txt parsat&lt;/div&gt;" style="image;sketch=0;aspect=fixed;html=1;points=[];align=center;fontSize=12;image=img/lib/mscae/Database_General.svg;" vertex="1" parent="1">
          <mxGeometry x="720" y="170" width="38" height="50" as="geometry" />
        </mxCell>
        <mxCell id="OyF0owdOx1uM8PFf-tYp-13" value="" style="endArrow=classic;html=1;rounded=0;exitX=0.912;exitY=0.512;exitDx=0;exitDy=0;exitPerimeter=0;entryX=-0.007;entryY=0.493;entryDx=0;entryDy=0;entryPerimeter=0;" edge="1" parent="1" source="OyF0owdOx1uM8PFf-tYp-4" target="OyF0owdOx1uM8PFf-tYp-8">
          <mxGeometry width="50" height="50" relative="1" as="geometry">
            <mxPoint x="710" y="380" as="sourcePoint" />
            <mxPoint x="760" y="330" as="targetPoint" />
          </mxGeometry>
        </mxCell>
        <mxCell id="OyF0owdOx1uM8PFf-tYp-15" value="&lt;div&gt;comunicare la nivel&lt;/div&gt;&lt;div&gt;de sistem de fisiere&lt;/div&gt;" style="edgeLabel;html=1;align=center;verticalAlign=middle;resizable=0;points=[];" connectable="0" vertex="1" parent="OyF0owdOx1uM8PFf-tYp-13">
          <mxGeometry x="-0.3609" y="-1" relative="1" as="geometry">
            <mxPoint x="39" y="-1" as="offset" />
          </mxGeometry>
        </mxCell>
        <mxCell id="OyF0owdOx1uM8PFf-tYp-14" value="" style="endArrow=classic;html=1;rounded=0;exitX=0.928;exitY=0.457;exitDx=0;exitDy=0;exitPerimeter=0;entryX=-0.032;entryY=0.492;entryDx=0;entryDy=0;entryPerimeter=0;" edge="1" parent="1" source="OyF0owdOx1uM8PFf-tYp-8" target="OyF0owdOx1uM8PFf-tYp-9">
          <mxGeometry width="50" height="50" relative="1" as="geometry">
            <mxPoint x="900" y="380" as="sourcePoint" />
            <mxPoint x="950" y="330" as="targetPoint" />
          </mxGeometry>
        </mxCell>
        <mxCell id="OyF0owdOx1uM8PFf-tYp-16" value="&lt;div&gt;comunicare la nivel&lt;/div&gt;&lt;div&gt;de sistem de fisiere&lt;/div&gt;" style="edgeLabel;html=1;align=center;verticalAlign=middle;resizable=0;points=[];" connectable="0" vertex="1" parent="OyF0owdOx1uM8PFf-tYp-14">
          <mxGeometry x="0.0467" relative="1" as="geometry">
            <mxPoint as="offset" />
          </mxGeometry>
        </mxCell>
      </root>
    </mxGraphModel>
  </diagram>
</mxfile>
